<svg width="512" height="512" viewBox="0 0 512 512" fill="none" xmlns="http://www.w3.org/2000/svg">
  <rect width="512" height="512" rx="128" fill="white"/>
  <path d="M256 84C230 106 176 125 132 152C108 166 92 190 92 221V282C92 361 156 426 256 476C356 426 420 361 420 282V221C420 190 404 166 380 152C336 125 282 106 256 84Z" fill="#F9FAFB" stroke="#1E2033" stroke-width="22" stroke-linejoin="round"/>
  <path d="M256 176V314" stroke="#1E2033" stroke-width="18" stroke-linecap="round"/>
  <path d="M206 212V278" stroke="#31408F" stroke-width="18" stroke-linecap="round"/>
  <path d="M166 236V254" stroke="#31408F" stroke-width="18" stroke-linecap="round"/>
  <path d="M306 212V278" stroke="#31408F" stroke-width="18" stroke-linecap="round"/>
  <path d="M346 236V254" stroke="#31408F" stroke-width="18" stroke-linecap="round"/>
  <circle cx="256" cy="142" r="14" fill="#F9730C"/>
  <path d="M204 350C172 320 138 300 126 236C173 261 211 275 236 316C250 339 255 363 256 392C245 379 226 365 204 350Z" fill="#257A4B"/>
  <path d="M308 350C340 320 374 300 386 236C339 261 301 275 276 316C262 339 257 363 256 392C267 379 286 365 308 350Z" fill="#8FBE33"/>
  <path d="M210 104C224 92 239 84 256 80C273 84 288 92 302 104" stroke="#F9730C" stroke-width="12" stroke-linecap="round"/>
  <path d="M188 76C208 57 231 45 256 40C281 45 304 57 324 76" stroke="#F9730C" stroke-width="12" stroke-linecap="round"/>
</svg>
